# xmcd
#
# Track frame offsets:
#	150
#	15571
#	30025
#	47407
#	65528
#	81032
#	96743
#	113763
#	127809
#	140049
#	152635
#	167890
#	183736
#	201792
#	217946
#	232719
#	250585
#	265066
#	270202
#
# Disc length: 3833 seconds
#
# Revision: 2
# Processed by: cddbd v1.5.2PL0 Copyright (c) Steve Scherf et al.
# Submitted via: audiograbber 1.83.01
#
DISCID=f00ef713
DTITLE=Various Artist - Promo Only Country Radio 2005 - 12
DYEAR=2005
DGENRE=Country
TTITLE0=Garth Brooks - Good Ride Cowboy
TTITLE1=Montgomery Gentry - She Don't Tell Me To
TTITLE2=Trisha Yearwood - Trying To Love You
TTITLE3=Tracy Lawrence - If I Don't Make It Back
TTITLE4=Sara Evans - Cheatin'
TTITLE5=Collin Raye - I Know Thats Right
TTITLE6=Carrie Underwood - Jesus, Take The Wheel
TTITLE7=Jason Aldean - Why
TTITLE8=Gretchen Wilson - I Don't Feel Like Loving You Today
TTITLE9=Jace Everett - Bad Things
TTITLE10=Cross Canadian Ragweed - Fightin' For
TTITLE11=Ryan Shupe and The Rubberband - Banjo Boy
TTITLE12=Rockie Lynne - Lipstick
TTITLE13=Jack Ingram - Wherever You Are
TTITLE14=Zona Jones - I'll Give It To You
TTITLE15=Bering Strait - You Make Lovin' Fun
TTITLE16=Trent Tomlinson - Drunker Than Me
TTITLE17=Aaron Russell - Diffrent Light
TTITLE18=Scooter Lee - Holidays In The Bayou
EXTD=
EXTT0=
EXTT1=
EXTT2=
EXTT3=
EXTT4=
EXTT5=
EXTT6=
EXTT7=
EXTT8=
EXTT9=
EXTT10=
EXTT11=
EXTT12=
EXTT13=
EXTT14=
EXTT15=
EXTT16=
EXTT17=
EXTT18=
PLAYORDER=
